<?xml version="1.0" standalone="no"?>
<!DOCTYPE svg PUBLIC "-//W3C//DTD SVG 20010904//EN"
 "http://www.w3.org/TR/2001/REC-SVG-20010904/DTD/svg10.dtd">
<svg version="1.0" xmlns="http://www.w3.org/2000/svg"
 width="130.000000pt" height="130.000000pt" viewBox="0 0 130.000000 130.000000"
 preserveAspectRatio="xMidYMid meet">

<g transform="translate(0.000000,130.000000) scale(0.100000,-0.100000)"
fill="#000000" stroke="none">
<path d="M525 1234 c-230 -50 -413 -235 -461 -464 -44 -207 32 -437 190 -576
58 -51 192 -122 249 -131 l37 -6 0 207 0 206 -70 0 -70 0 0 90 0 90 69 0 68 0
5 98 c8 145 43 212 138 255 37 17 62 21 138 20 51 -1 97 -5 102 -8 6 -3 10
-42 10 -86 l0 -79 -59 0 c-89 0 -105 -17 -109 -119 l-4 -81 87 0 c77 0 86 -2
81 -17 -3 -10 -8 -40 -12 -68 -13 -93 -15 -95 -89 -95 l-65 0 0 -209 0 -209
52 14 c101 26 179 73 264 158 124 124 174 246 174 421 0 190 -72 345 -217 466
-135 113 -335 161 -508 123z"/>
</g>
</svg>
